HIERARCHY
ROOT Hips
{
    OFFSET 0.000000 0.000000 0.000000
    CHANNELS 6 Xposition Yposition Zposition Zrotation Xrotation Yrotation
    JOINT Spine
    {
        OFFSET -0.000000 7.236184 0.000000
        CHANNELS 3 Zrotation Xrotation Yrotation
        JOINT Spine1
        {
            OFFSET -0.000000 20.420147 0.000000
            CHANNELS 3 Zrotation Xrotation Yrotation
            JOINT Neck
            {
                OFFSET -0.000000 20.336288 1.848754
                CHANNELS 3 Zrotation Xrotation Yrotation
                JOINT Head
                {
                    OFFSET -0.000000 12.354461 -1.764923
                    CHANNELS 3 Zrotation Xrotation Yrotation
                    End Site
                    {
                        OFFSET -0.000000 22.061537 0.000000
                    }
                }
            }
            JOINT LeftShoulder
            {
                OFFSET 3.573296 18.396038 -0.314103
                CHANNELS 3 Zrotation Xrotation Yrotation
                JOINT LeftArm
                {
                    OFFSET 10.880760 0.000000 0.000000
                    CHANNELS 3 Zrotation Xrotation Yrotation
                    JOINT LeftForeArm
                    {
                        OFFSET 27.185530 0.000000 0.000000
                        CHANNELS 3 Zrotation Xrotation Yrotation
                        JOINT LeftHand
                        {
                            OFFSET 27.825975 0.000000 0.000000
                            CHANNELS 3 Zrotation Xrotation Yrotation
                            End Site
                            {
                                OFFSET 13.236923 0.000000 0.000000
                            }
                        }
                    }
                }
            }
            JOINT RightShoulder
            {
                OFFSET -3.474926 18.396038 -0.314103
                CHANNELS 3 Zrotation Xrotation Yrotation
                JOINT RightArm
                {
                    OFFSET -10.880760 0.000000 0.000000
                    CHANNELS 3 Zrotation Xrotation Yrotation
                    JOINT RightForeArm
                    {
                        OFFSET -27.185530 0.000000 0.000000
                        CHANNELS 3 Zrotation Xrotation Yrotation
                        JOINT RightHand
                        {
                            OFFSET -27.825975 0.000000 0.000000
                            CHANNELS 3 Zrotation Xrotation Yrotation
                            End Site
                            {
                                OFFSET -13.236923 0.000000 0.000000
                            }
                        }
                    }
                }
            }
        }
    }
    JOINT LeftUpLeg
    {
        OFFSET 8.824615 0.000000 0.000000
        CHANNELS 3 Zrotation Xrotation Yrotation
        JOINT LeftLeg
        {
            OFFSET -0.000000 -35.111282 0.000000
            CHANNELS 3 Zrotation Xrotation Yrotation
            JOINT LeftFoot
            {
                OFFSET -0.000000 -42.324711 0.000000
                CHANNELS 3 Zrotation Xrotation Yrotation
                JOINT LeftToeBase
                {
                    OFFSET -0.000000 -5.735999 13.236923
                    CHANNELS 3 Zrotation Xrotation Yrotation
                    End Site
                    {
                        OFFSET -0.000000 0.000000 3.529846
                    }
                }
            }
        }
    }
    JOINT RightUpLeg
    {
        OFFSET -8.824615 0.000000 0.000000
        CHANNELS 3 Zrotation Xrotation Yrotation
        JOINT RightLeg
        {
            OFFSET -0.000000 -35.111282 0.000000
            CHANNELS 3 Zrotation Xrotation Yrotation
            JOINT RightFoot
            {
                OFFSET -0.000000 -42.324711 0.000000
                CHANNELS 3 Zrotation Xrotation Yrotation
                JOINT RightToeBase
                {
                    OFFSET -0.000000 -5.735999 13.236923
                    CHANNELS 3 Zrotation Xrotation Yrotation
                    End Site
                    {
                        OFFSET -0.000000 0.000000 3.529846
                    }
                }
            }
        }
    }
}
MOTION
Frames:    6
Frame Time:    0.008333
-25.367746    80.861641    106.524315    -0.254483    -8.688622    176.633453    -1.218311    -7.349845    0.857806    3.824770    4.229026    0.794753    0.868332    6.328429    -6.238259    7.102273    -14.018488    -4.716361    0.015890    14.340755    1.025458    -47.850910    22.614748    -26.942696    14.355390    -6.254581    -29.946686    28.257805    -4.513360    -8.374762    6.687010    13.815566    -8.268921    44.089722    22.147139    28.797699    -20.366201    -12.698236    42.060783    -40.130207    -6.962113    5.750771    4.682389    -22.108690    1.927381    -3.596725    33.715725    13.062355    -7.864359    -13.332985    -15.337157    1.875502    -2.313483    -2.087745    -14.016046    -25.871317    -12.343943    15.522242    50.498138    -8.737843    9.670947    -3.791991    -9.274431    -0.568078    -8.191746    0.621917    
-25.328625    80.823555    106.506287    -0.262528    -8.606471    176.304184    -1.247590    -7.307846    0.865179    4.044864    4.324903    0.792109    0.715727    6.435351    -6.209872    7.131418    -14.033528    -4.663536    0.218938    14.077788    1.270618    -47.775055    20.759848    -25.470018    14.225562    -6.203383    -29.584625    28.199711    -4.551874    -8.418050    6.296730    13.439111    -8.503919    44.281605    19.588873    27.269398    -20.228699    -12.562704    42.151943    -39.757542    -6.799979    5.642466    4.906619    -22.108950    2.183335    -3.809480    33.970570    13.496748    -8.054326    -13.253665    -15.607192    1.888153    -2.388614    -2.102124    -14.605469    -26.247974    -12.735190    15.120499    51.204502    -8.228770    9.536771    -3.779791    -9.521327    -0.464162    -8.360670    0.508292    
-25.285158    80.793243    106.487190    -0.275399    -8.539032    176.032623    -1.264443    -7.275152    0.876043    4.219626    4.383839    0.794863    0.568312    6.563522    -6.190690    7.168389    -14.031862    -4.619905    0.419915    13.808736    1.484842    -47.592587    19.103687    -24.171310    14.153488    -6.181417    -29.318186    28.165287    -4.588707    -8.445762    5.900629    13.074759    -8.695977    44.312862    17.310049    25.924389    -20.149963    -12.453045    42.288128    -39.420387    -6.631050    5.524129    5.101001    -22.107008    2.399099    -3.998141    34.181515    13.877838    -8.220331    -13.168493    -15.847771    1.899017    -2.462698    -2.114513    -15.118476    -26.539892    -13.008806    14.722466    51.721069    -7.767791    9.369229    -3.793929    -9.787118    -0.377054    -8.530369    0.413017    
-25.219852    80.759483    106.460487    -0.296889    -8.462420    175.720871    -1.276564    -7.238060    0.893276    4.416510    4.423668    0.803382    0.370723    6.761156    -6.174955    7.227573    -14.013927    -4.570714    0.698611    13.432981    1.743217    -47.213921    17.054461    -22.573500    14.102830    -6.184135    -29.021204    28.141445    -4.648555    -8.471454    5.349157    12.588857    -8.914495    44.162468    14.488389    24.271940    -20.088350    -12.326448    42.485359    -38.994957    -6.408239    5.366760    5.339148    -22.105753    2.653297    -4.232412    34.429989    14.344014    -8.423321    -13.044276    -16.145926    1.912148    -2.564758    -2.129542    -15.740883    -26.853596    -13.263083    14.180064    52.228539    -7.184176    9.116113    -3.825857    -10.153916    -0.272906    -8.754978    0.299046    
-25.147989    80.733116    106.434158    -0.321228    -8.402392    175.471191    -1.279763    -7.206711    0.911887    4.574495    4.420538    0.815815    0.178246    6.977841    -6.170465    7.294491    -13.982522    -4.533198    0.983006    13.051628    1.961980    -46.724705    15.242879    -21.153292    14.097791    -6.228951    -28.792011    28.137775    -4.723854    -8.468107    4.789989    12.119884    -9.088552    43.850269    11.997133    22.788177    -20.080046    -12.239837    42.697632    -38.606987    -6.202194    5.201492    5.550782    -22.110853    2.865076    -4.442629    34.643353    14.750113    -8.601044    -12.914245    -16.409618    1.922817    -2.665807    -2.141832    -16.278921    -27.080759    -13.397939    13.651154    52.535973    -6.657427    8.852272    -3.865119    -10.507336    -0.184815    -8.965092    0.202590    
-25.066650    80.710648    106.408012    -0.348068    -8.353964    175.260834    -1.277556    -7.176580    0.931455    4.711177    4.381779    0.831193    -0.018073    7.216131    -6.175018    7.369781    -13.942277    -4.503926    1.289198    12.649747    2.155310    -46.128040    13.552009    -19.810032    14.124918    -6.310506    -28.593187    28.146080    -4.817983    -8.438640    4.199209    11.644841    -9.236283    43.396351    9.676708    21.363703    -20.112432    -12.185585    42.916626    -38.229462    -6.009033    5.024589    5.753581    -22.127117    3.052730    -4.644699    34.845177    15.125040    -8.768081    -12.774754    -16.657356    1.931305    -2.769073    -2.151707    -16.771233    -27.251270    -13.447982    13.111571    52.698956    -6.151690    8.578046    -3.907646    -10.856372    -0.106103    -9.163435    0.116351    
